# xmcd CD database file
#
# Track frame offsets:
#	150
#	13540
#	27102
#	41222
#	53115
#	66635
#	79847
#	94135
#	107950
#	121070
#	133807
#	147330
#	157655
#	172442
#	186557
#	199800
#
# Disc length: 2850 seconds
#
# Revision: 0
# Processed by: cddbd v1.5.1PL2 Copyright (c) Steve Scherf et al.
# Submitted via: CDex 1.51
#
DISCID=ed0b2010
DTITLE=Billie Holiday - Billie's Blues
DYEAR=1900
DGENRE=Blues
TTITLE0=Whereever You Are
TTITLE1=Georgia On My Mind
TTITLE2=Until the real thing comes
TTITLE3=Keeps on A-Raining
TTITLE4=What a little moonlight can do
TTITLE5=My man
TTITLE6=Strange Fruit
TTITLE7=Twenty four hours a day
TTITLE8=You're gonna see a lot of me
TTITLE9=Let's dream in the moonlight
TTITLE10=Let's call a heart a heart
TTITLE11=Please keep me in your dreams
TTITLE12=These foolish things
TTITLE13=That's life I guess
TTITLE14=I wish I had you
TTITLE15=I Love My Man (Billie's Blues)
EXTD=
EXTT0=
EXTT1=
EXTT2=
EXTT3=
EXTT4=
EXTT5=
EXTT6=
EXTT7=
EXTT8=
EXTT9=
EXTT10=
EXTT11=
EXTT12=
EXTT13=
EXTT14=
EXTT15=
PLAYORDER=
